<?xml version="1.0"?>
<svg xmlns="http://www.w3.org/2000/svg" width="652" height="364" viewBox="0 0 652 364" fill="none">
<g clip-path="url(#clip0_4104_1174)">
<path fill-rule="evenodd" clip-rule="evenodd" d="M650.838 73.6623C650.838 108.442 622.537 136.637 587.625 136.637H523.262V10.688H587.625C622.537 10.688 650.838 38.8825 650.838 73.6623ZM587.625 116.027C611.111 116.027 630.15 97.0596 630.15 73.6623C630.15 50.265 611.111 31.2978 587.625 31.2978H543.95V116.027H587.625Z" fill="#211814"/>
<path fill-rule="evenodd" clip-rule="evenodd" d="M416.376 73.6623C416.376 108.442 444.678 136.637 479.59 136.637H543.952V10.688H479.59C444.678 10.688 416.376 38.8825 416.376 73.6623ZM479.59 116.027C456.104 116.027 437.064 97.0596 437.064 73.6623C437.064 50.265 456.104 31.2978 479.59 31.2978H523.264V116.027H479.59Z" fill="#211814"/>
<path fill-rule="evenodd" clip-rule="evenodd" d="M416.376 179C416.376 213.779 444.678 241.974 479.59 241.974H543.952V116.025L479.59 116.027C444.678 116.027 416.376 144.22 416.376 179ZM479.59 221.364C456.104 221.364 437.064 202.397 437.064 179C437.064 155.602 456.104 136.637 479.59 136.637L523.264 136.635V221.364H479.59Z" fill="#211814"/>
<path fill-rule="evenodd" clip-rule="evenodd" d="M416.376 284.338C416.376 319.19 445.036 347.312 479.876 347.312C515.032 347.312 543.952 318.933 543.952 283.765V221.363L479.59 221.364C444.678 221.364 416.376 249.558 416.376 284.338ZM479.876 326.702C456.317 326.702 437.064 307.663 437.064 284.338C437.064 260.94 456.104 241.974 479.59 241.974L523.264 241.973V283.765C523.264 307.406 503.752 326.702 479.876 326.702Z" fill="#211814"/>
<path fill-rule="evenodd" clip-rule="evenodd" d="M523.252 179C523.252 213.779 551.554 241.974 586.466 241.974H587.615C622.527 241.974 650.828 213.779 650.828 179C650.828 144.22 622.527 116.025 587.615 116.025H586.466C551.554 116.025 523.252 144.22 523.252 179ZM586.466 221.364C562.98 221.364 543.94 202.397 543.94 179C543.94 155.602 562.98 136.635 586.466 136.635H587.615C611.101 136.635 630.14 155.602 630.14 179C630.14 202.397 611.101 221.364 587.615 221.364H586.466Z" fill="#211814"/>
<path d="M205.98 67.9783C215.176 67.9783 222.631 60.5294 222.631 51.3407C222.631 42.152 215.176 34.7031 205.98 34.7031C196.784 34.7031 189.329 42.152 189.329 51.3407C189.329 60.5294 196.784 67.9783 205.98 67.9783Z" fill="white"/>
<path d="M27.439 133.697C36.6352 133.697 44.0901 126.248 44.0901 117.059C44.0901 107.87 36.6352 100.422 27.439 100.422C18.2428 100.422 10.7878 107.87 10.7878 117.059C10.7878 126.248 18.2428 133.697 27.439 133.697Z" fill="white"/>
<path d="M400.799 117.059C400.799 126.248 393.344 133.697 384.147 133.697C374.951 133.697 367.496 126.248 367.496 117.059C367.496 107.87 374.951 100.422 384.147 100.422C393.344 100.422 400.799 107.87 400.799 117.059Z" fill="white"/>
<path d="M205.519 354.145C214.715 354.145 222.17 346.696 222.17 337.507C222.17 328.318 214.715 320.869 205.519 320.869C196.323 320.869 188.868 328.318 188.868 337.507C188.868 346.696 196.323 354.145 205.519 354.145Z" fill="white"/>
<path fill-rule="evenodd" clip-rule="evenodd" d="M167.989 317.073L179.51 327.389C178.509 330.242 177.964 333.31 177.964 336.505C177.964 351.713 190.302 364.041 205.522 364.041C220.742 364.041 233.081 351.713 233.081 336.505C233.081 333.57 232.621 330.741 231.769 328.088L244.101 317.046L244.684 316.526C287.239 278.569 324.225 245.578 350.373 214.112C369.014 191.679 383.252 168.748 390.052 143.89C402.102 140.947 411.045 130.087 411.045 117.14C411.045 105.153 403.378 94.9541 392.677 91.1727C383.236 38.5211 337.374 0 281.564 0C261.736 0 243.59 7.56152 228.659 17.0548C224.522 19.6853 220.536 22.5241 216.72 25.4981C213.299 23.9759 209.509 23.1299 205.522 23.1299C201.787 23.1299 198.226 23.8722 194.978 25.2173C191.273 22.3454 187.407 19.6024 183.4 17.0548C168.47 7.56152 150.324 0 130.496 0C74.8115 0 29.031 38.3473 19.4474 90.8162C8.18593 94.2764 0 104.753 0 117.14C0 130.471 9.48151 141.59 22.0741 144.131C28.8998 168.896 43.106 191.751 61.6873 214.112C87.8344 245.578 124.821 278.569 167.376 316.526L167.989 317.073ZM42.3921 140.351C57.0635 190.492 108.989 236.888 181.691 301.736L193.077 311.931C196.815 310.037 201.044 308.969 205.522 308.969C210.259 308.969 214.716 310.163 218.609 312.266L230.369 301.736C302.816 237.115 354.632 190.818 369.512 140.878C361.382 136.09 355.928 127.252 355.928 117.14C355.928 106.068 362.468 96.5227 371.898 92.1496C363.162 50.6992 326.559 20.5588 281.564 20.5588C263.639 20.5588 246.157 29.0107 231.097 40.3874C232.376 43.5632 233.081 47.0323 233.081 50.6658C233.081 65.8735 220.742 78.2017 205.522 78.2017C190.302 78.2017 177.964 65.8735 177.964 50.6658C177.964 46.8098 178.757 43.1389 180.19 39.8071C165.305 28.7245 148.115 20.5588 130.496 20.5588C85.339 20.5588 48.634 50.9169 40.0682 92.5982C49.0003 97.1529 55.1167 106.433 55.1167 117.14C55.1167 126.891 50.0443 135.458 42.3921 140.351ZM17.6318 108.7C17.6318 108.7 17.6318 108.699 17.6318 108.7C20.0226 105.895 23.5827 104.117 27.5586 104.117C31.9483 104.117 35.8311 106.285 38.1931 109.608C38.1931 109.608 38.1931 109.608 38.1931 109.608C39.7045 111.734 40.5931 114.333 40.5931 117.14C40.5931 124.333 34.7572 130.164 27.5583 130.164C20.3595 130.164 14.5236 124.333 14.5236 117.14C14.5236 113.92 15.6935 110.973 17.6318 108.7ZM218.557 336.505C218.557 336.01 218.53 335.521 218.476 335.04C218.243 332.969 217.525 331.045 216.438 329.384C214.204 325.973 210.411 323.673 206.071 323.493L205.985 323.489C205.831 323.484 205.677 323.482 205.523 323.482C198.324 323.482 192.488 329.313 192.488 336.506C192.488 337.1 192.528 337.684 192.605 338.257C192.651 338.6 192.71 338.94 192.783 339.274C194.053 345.137 199.274 349.529 205.522 349.529C212.721 349.529 218.557 343.698 218.557 336.505ZM383.486 130.164C379.714 130.164 376.315 128.563 373.935 126.003C373.595 125.638 373.276 125.253 372.979 124.85C371.39 122.691 370.451 120.025 370.451 117.14C370.451 113.769 371.733 110.697 373.836 108.384C376.221 105.762 379.661 104.117 383.486 104.117C387.512 104.117 391.112 105.94 393.503 108.806C393.845 109.215 394.162 109.646 394.452 110.096C395.761 112.127 396.521 114.545 396.521 117.14C396.521 124.333 390.685 130.164 383.486 130.164ZM205.523 37.6423C210.022 37.6423 213.989 39.92 216.331 43.3845C217.487 45.0944 218.248 47.0933 218.481 49.2501C218.531 49.7151 218.557 50.1875 218.557 50.6658C218.557 57.8588 212.721 63.6899 205.522 63.6899C198.323 63.6899 192.488 57.8588 192.488 50.6658C192.488 50.4589 192.492 50.2532 192.502 50.0487C192.825 43.1424 198.531 37.6423 205.523 37.6423Z" fill="#211814"/>
<mask id="mask0_4104_1174" style="mask-type:alpha" maskUnits="userSpaceOnUse" x="40" y="20" width="332" height="293">
<path d="M193.078 311.931L181.692 301.736C108.99 236.888 57.0647 190.492 42.3933 140.351C50.0455 135.458 55.1179 126.891 55.1179 117.14C55.1179 106.433 49.0015 97.1527 40.0693 92.5981C48.6351 50.9167 85.3401 20.5586 130.497 20.5586C148.116 20.5586 165.307 28.7243 180.191 39.807C178.758 43.1387 177.965 46.8097 177.965 50.6657C177.965 65.8733 190.303 78.2016 205.523 78.2016C220.744 78.2016 233.082 65.8733 233.082 50.6657C233.082 47.0322 232.377 43.5631 231.098 40.3872C246.158 29.0105 263.64 20.5586 281.565 20.5586C326.56 20.5586 363.163 50.6991 371.899 92.1495C362.469 96.5226 355.929 106.068 355.929 117.14C355.929 127.252 361.384 136.09 369.513 140.878C354.633 190.818 302.817 237.115 230.37 301.736L218.61 312.266C214.717 310.163 210.26 308.969 205.523 308.969C201.045 308.969 196.816 310.037 193.078 311.931Z" fill="#236DF6"/>
</mask>
<g mask="url(#mask0_4104_1174)">
<rect x="24.6003" y="13.2944" width="362.581" height="327.386" fill="#5551FF"/>
</g>
</g>
<defs>
<clipPath id="clip0_4104_1174">
<rect width="652" height="364" fill="white"/>
</clipPath>
</defs>
</svg>
