<svg width="1331" height="730" fill="none" xmlns="http://www.w3.org/2000/svg"><g clip-path="url(#a)"><path d="M1330.53 609.905v119.566h-303.05V.153h207.84l95.11 84.003v.15l-95.11 84.004h-34.46l91.65 75.351c23.99 19.718 37.92 49.195 37.92 80.281v125.099h-129.22l94.11 82.847c22.39 19.718 35.21 48.138 35.21 77.967v.05Z" fill="#00AC98"/><path d="M1027.53 459.202v90.643h105.68l-105.68-90.643Z" fill="#006C60"/><path d="M1027.53 640.488v-90.643h105.68l-105.68 90.643Z" fill="#88CAC9"/><path d="M1027.53 176.408v90.643h105.68l-105.68-90.643Z" fill="#006C60"/><path d="M1027.53 357.644v-90.593h105.68l-105.68 90.593Z" fill="#88CAC9"/><path d="M1235.37.153h-34.46V168.31h34.46V.153Z" fill="#006C60"/><path d="m1330.53 84.256-.05.1-95.11 84.004V.153l95.11 84.053.05.05Z" fill="#88CAC9"/><path d="m1289.69 48.19-.05 72.183 40.89-36.117-40.84-36.066Z" fill="#006C60"/><path d="M303.42.152H.466v729.369H303.42V.152Z" fill="#EEAB1F"/><path d="m.466.152 95.519 82.293-95.52 81.539V.152Z" fill="#EB7A39"/><path d="m.466 163.934 95.519 82.293-95.52 81.538V163.934Zm0 163.831 95.519 82.243-95.52 81.538V327.765ZM303.42 687.319v42.253H.466v-43.058a112.688 112.688 0 0 0 10.512 3.772c30.582 9.306 60.611 6.791 88.93-8.048 20.421-10.714 35.461-26.559 44.364-46.528 1.761-3.974-3.722-11.62-7.394-16.6-7.897-10.815-18.812-20.12-24.747-31.69-7.797-15.14-2.465-31.036 8.802-42.957 20.522-21.68 41.698-47.635 27.967-74.798-2.214-4.326-5.332-5.03 1.81-3.471 12.223 4.326 22.484 12.475 29.778 21.63 14.184 17.706 23.288 38.078 22.232 61.669-1.207 26.811-12.323 48.591-34.153 65.392-9.406 7.243-11.167 13.33-5.483 24.044 26.307 49.798 88.376 69.064 140.285 48.39h.051Z" fill="#EB7A39"/><path d="M988.246.153H685.191v729.369h303.055V.152Z" fill="#EA585C"/><path d="M685.644 729.521s-.352-.201-.402-.301c-.101-.252 0-1.258 0-2.465 0-3.823-.151-6.942.151-9.507.402-2.465 2.414-4.426 4.829-4.98 1.609-.402 14.737-3.622 20.119-4.98 1.308-.352 2.264-.553 2.566-.654.301-.251.201-.654.301-1.157.453-3.269.906-6.589 1.711-9.808.804-2.867 1.76-6.741 2.364-9.658v-.352c-3.873-4.075-15.14-15.694-16.499-17.103-1.609-1.66-2.313-4.275-1.458-6.489 1.106-2.515 3.219-5.834 4.879-8.903a2629.121 2629.121 0 0 0 7.444-13.33c1.207-2.213 3.773-3.621 6.338-3.269 2.867.503 11.82 3.672 18.46 5.633 1.76.503 2.968.956 3.32 1.006.251 0 .301-.201.503-.402 4.325-5.181 9.054-10.111 14.134-14.537.352-.352.955-.704.955-1.107-.452-1.71-4.376-14.989-5.985-20.774-1.056-2.666-.704-5.936 1.71-7.797 5.03-3.32 18.561-11.267 21.025-12.827 2.515-1.509 5.986-.955 7.948 1.208 1.307 1.358 12.273 12.927 16.146 16.901.352.151.754-.151 1.106-.252 5.533-1.811 11.267-3.32 17.152-4.326.453-.15 1.208-.1 1.208-.603.754-2.867 4.275-16.6 5.834-22.686.151-.553.302-1.107.604-1.66 1.157-2.515 3.974-3.722 6.589-3.521 2.113 0 4.024 0 6.64.05 7.343.201 13.178-.1 15.995.252 2.465.402 4.476 2.515 4.979 4.929.252 1.509 2.012 12.022 3.069 18.41.452 2.516.704 4.377.855 4.829.151.202.352.202.754.302 6.338 1.258 12.575 2.968 18.511 5.131.452.151 1.056.453 1.358.352.352-.302 1.458-1.559 3.068-3.219 5.332-5.533 11.921-12.928 14.235-14.889 2.012-1.56 4.929-1.56 7.042-.302 1.911 1.308 15.341 8.953 20.019 11.821 2.565 1.307 4.074 4.678 3.118 7.444a9399.94 9399.94 0 0 0-7.494 23.541c0 .252.503.604.754.855 4.678 4.326 9.054 9.004 13.028 14.034.151.151.251.302.352.453.251.302.402.402.553.352 5.03-1.207 19.365-4.577 21.227-5.03 2.716-.754 5.935.604 7.243 3.119.553 1.006 4.325 7.696 7.343 13.128.956 1.761 1.912 3.371 2.566 4.578 1.911 3.118 2.917 5.382 1.207 8.501-1.71 2.364-8.803 10.261-14.185 16.499-1.71 2.012-3.018 3.47-3.319 3.873-.101.352.05.805.151 1.308 1.207 4.828 2.112 9.859 2.716 14.889 0 .302.05.553.1.704 0 .151.101.252.151.302 1.61.603 21.378 7.595 23.44 8.35 2.213.754 4.124 3.169 4.175 5.583v.101c.1 1.861 0 6.137 0 7.847 0 .251-.101.453-.352.402h-50.35c-3.421-59.556-47.433-106.689-101.253-106.689-53.821 0-97.782 47.283-101.303 106.74h-49.243l-.202.15Zm302.551-615.838h-99.19l99.19 113.58v-113.58Zm0 113.58h-99.19l99.19 113.53v-113.53Zm0 113.53h-99.19l99.19 113.53v-113.53Zm0 113.53h-99.19l99.19 113.58v-113.58Zm0-454.17h-99.19l99.19 113.53V.153Z" fill="#C0262A"/><path d="M342.804.153V729.47h302.954V561.314H516.186l91.646-75.351c23.993-19.718 37.926-49.195 37.926-80.281v-125.1H516.539l94.06-82.846a103.93 103.93 0 0 0 35.209-77.967V.153H342.754h.05Z" fill="#77338F"/><path d="M525.039 141.549H342.754V95.323c12.977-14.437 31.89-23.491 52.965-23.491 46.829 0 93.608 23.24 129.32 69.717Z" fill="#4B235F"/><path d="M525.039 141.55c-35.712 46.478-82.541 69.717-129.32 69.717-21.075 0-39.988-9.054-52.965-23.491v-46.277h182.285v.051Z" fill="#A880B4"/><path d="M525.039 421.828H342.754v-46.227c12.977-14.436 31.89-23.49 52.965-23.49 46.829 0 93.608 23.239 129.32 69.717Z" fill="#4B235F"/><path d="M525.039 421.828c-35.712 46.479-82.541 69.718-129.32 69.718-21.075 0-39.988-9.054-52.965-23.491v-46.277h182.285v.05Z" fill="#A880B4"/></g><defs><clipPath id="a"><path fill="#fff" transform="translate(.465 .152)" d="M0 0h1330.07v729.369H0z"/></clipPath></defs></svg>